<?xml version="1.0" encoding="UTF-8"?>
<svg version="1.1" xmlns="http://www.w3.org/2000/svg" width="460" height="460">
<path d="M0 0 C1.42073932 -0.0034641 2.84147594 -0.00823369 4.26220703 -0.01418173 C8.13414332 -0.02661814 12.00585563 -0.02055524 15.87779236 -0.01122308 C20.06600403 -0.0044025 24.25417864 -0.01492865 28.44238281 -0.02316284 C36.63439158 -0.03647041 44.82631767 -0.03363574 53.01832962 -0.02492492 C59.67889329 -0.01813704 66.33943386 -0.01723642 73 -0.02049637 C73.94963371 -0.02095607 74.89926743 -0.02141577 75.87767792 -0.0218894 C77.80711874 -0.02284862 79.73655956 -0.02382126 81.66600037 -0.02480717 C99.73877201 -0.03335235 117.81149794 -0.02354064 135.88426208 -0.00740607 C151.37598928 0.00599631 166.86764902 0.00366797 182.359375 -0.01016235 C200.36951812 -0.02623359 218.37962122 -0.03252845 236.38977051 -0.02332556 C238.31193033 -0.02236996 240.23409016 -0.02142685 242.15625 -0.02049637 C243.10187553 -0.02003354 244.04750107 -0.01957072 245.02178192 -0.01909386 C251.67078109 -0.01650861 258.31975478 -0.02086494 264.96875 -0.02793503 C273.07675734 -0.03636739 281.1846776 -0.03403346 289.29267502 -0.0180928 C293.4258376 -0.0102334 297.55885524 -0.00707848 301.6920166 -0.01704025 C305.48193289 -0.02603627 309.27157104 -0.02097439 313.0614624 -0.0051076 C315.06815633 -0.00021479 317.07486985 -0.00991219 319.08154297 -0.02027929 C329.91753456 0.04950501 339.88431342 1.93507691 349.578125 6.88095093 C350.58649414 7.39262817 350.58649414 7.39262817 351.61523438 7.91464233 C367.26270998 16.27705154 378.49631851 30.9675974 384.70348358 47.35131836 C388.93546892 61.4544766 388.14878271 76.17002257 388.10102367 90.74807262 C388.09189581 94.876315 388.10598087 99.00449198 388.11694336 103.13272095 C388.13465139 111.19988041 388.13092322 119.2668903 388.1192928 127.33405542 C388.11022819 133.89533361 388.10904751 140.45657012 388.11338806 147.01785278 C388.11400099 147.9546882 388.11461393 148.89152362 388.11524543 149.85674798 C388.11652444 151.76041175 388.1178213 153.66407551 388.1191358 155.56773925 C388.13051899 173.38314185 388.11746347 191.19846187 388.09593433 209.01385093 C388.07806542 224.27232662 388.08117016 239.53068055 388.09960938 254.78915405 C388.12105614 272.54447493 388.12942056 290.29972359 388.11716032 308.05505562 C388.11588624 309.95138676 388.11462875 311.84771791 388.11338806 313.74404907 C388.11246241 315.14328851 388.11246241 315.14328851 388.11151806 316.57079542 C388.10807656 323.11778152 388.1138675 329.66472149 388.12330627 336.21170044 C388.13457004 344.1994816 388.13139476 352.1871057 388.1101833 360.17486906 C388.09973142 364.24378563 388.09544977 368.31244114 388.10877991 372.38135529 C388.18640019 398.2824793 386.97170736 421.77525126 367.578125 441.38095093 C351.7704946 455.36980567 334.97209516 460.86628318 314.1321106 460.76863098 C312.72089526 460.77281415 311.30968329 460.77829701 309.89847744 460.78495079 C306.05740158 460.79929533 302.2165423 460.7951955 298.37545514 460.78778398 C294.21855533 460.78302713 290.0617007 460.79558427 285.90481567 460.80580139 C277.77544322 460.82294562 269.64614822 460.82383853 261.51676239 460.81858849 C254.90535109 460.81453741 248.29396256 460.81600145 241.68255234 460.82133675 C240.26793034 460.82245938 240.26793034 460.82245938 238.82473012 460.82360469 C236.90850203 460.82513626 234.99227394 460.82667461 233.07604586 460.82821966 C215.13003528 460.84192884 197.18406836 460.83651812 179.23805879 460.82503445 C162.84339769 460.81510354 146.44884948 460.8280431 130.05420579 460.85196864 C113.19279504 460.8763887 96.3314368 460.88596038 79.47000873 460.87931591 C70.01455011 460.87583018 60.55917826 460.87801303 51.10373306 460.89556694 C43.05474031 460.91032531 35.00589546 460.91087701 26.9569055 460.89349603 C22.85572462 460.88501353 18.75480752 460.88276861 14.65364075 460.89814758 C10.88944263 460.91208745 7.12573198 460.90711398 3.3615614 460.88790835 C1.37601412 460.88242667 -0.60955858 460.89634181 -2.59505737 460.91126245 C-20.12950588 460.76941244 -36.17954541 455.03320717 -49.421875 443.38095093 C-50.09863281 442.78669312 -50.77539062 442.1924353 -51.47265625 441.58016968 C-63.78695727 430.03102911 -71.5994182 414.14788693 -72.60948253 397.24062693 C-72.68457814 393.60366277 -72.69805178 389.97140204 -72.68930054 386.33366394 C-72.69304316 384.92916438 -72.69764711 383.5246669 -72.70303118 382.12017268 C-72.71520103 378.28376452 -72.71500786 374.44744395 -72.71264243 370.61102092 C-72.71223273 366.46429993 -72.72328797 362.31760646 -72.73275757 358.17089844 C-72.74933557 350.05516864 -72.75486567 341.9394679 -72.75598232 333.82372258 C-72.75693433 327.2232082 -72.76105226 320.62270336 -72.76738358 314.022192 C-72.78498738 295.2871564 -72.79422381 276.55214366 -72.79272263 257.81709973 C-72.79264272 256.80812912 -72.7925628 255.79915851 -72.79248047 254.75961304 C-72.79239871 253.74940307 -72.79231695 252.73919311 -72.79223271 251.69837072 C-72.79142009 235.33262212 -72.81055391 218.96696562 -72.8387572 202.60124365 C-72.86752223 185.77609345 -72.8812955 168.95098811 -72.87956965 152.12581271 C-72.87890699 142.6881885 -72.88434476 133.25066084 -72.90592575 123.81305885 C-72.92418525 115.77681001 -72.92844588 107.74070148 -72.9149069 99.70444081 C-72.90840119 95.60935094 -72.90817262 91.5145299 -72.9256134 87.41946602 C-72.9414563 83.66070768 -72.93836785 79.90242881 -72.92104514 76.14368137 C-72.91657199 74.16096689 -72.93154399 72.17823686 -72.94752443 70.19558173 C-72.79727226 50.40387809 -65.40576842 32.50508397 -51.421875 18.38095093 C-36.44205214 5.06327279 -19.74567335 -0.10201231 0 0 Z " fill="#FBFBF9" transform="translate(72.421875,-0.380950927734375)"/>
<path d="M0 0 C1.39674562 0.0074802 2.79350188 0.0131647 4.19026184 0.01715088 C7.82856318 0.0322678 11.46620391 0.07142423 15.10424805 0.1159668 C18.83177764 0.15722493 22.55941622 0.17522638 26.28710938 0.1953125 C33.5732146 0.23793626 40.85877962 0.30601237 48.14453125 0.390625 C46.63005981 4.34765854 44.81852337 7.52996192 42.39453125 11.015625 C39.06745693 15.90944887 36.12354227 20.87747833 33.37109375 26.11328125 C32.14453125 28.390625 32.14453125 28.390625 30.14453125 31.390625 C27.21607663 31.666779 24.48717704 31.75935217 21.55859375 31.7265625 C19.80598589 31.73907625 18.0533817 31.75211343 16.30078125 31.765625 C13.53339678 31.76955594 10.76637345 31.7656083 7.99902344 31.75097656 C5.33082976 31.7424094 2.66415393 31.76408566 -0.00390625 31.7890625 C-0.83006439 31.77571869 -1.65622253 31.76237488 -2.50741577 31.74862671 C-7.40588214 31.79286483 -7.40588214 31.79286483 -11.26245117 34.69995117 C-12.05099487 36.03183472 -12.05099487 36.03183472 -12.85546875 37.390625 C-13.27046631 38.00800537 -13.68546387 38.62538574 -14.11303711 39.26147461 C-14.64876343 40.14331421 -14.64876343 40.14331421 -15.1953125 41.04296875 C-15.82034668 42.06765259 -15.82034668 42.06765259 -16.45800781 43.11303711 C-16.89854492 43.84401611 -17.33908203 44.57499512 -17.79296875 45.328125 C-18.49824707 46.4893689 -18.49824707 46.4893689 -19.21777344 47.67407227 C-23.64026538 54.97957195 -27.96626045 62.34192816 -32.29638672 69.70239258 C-35.43288384 75.02224801 -38.64137761 80.27397201 -42 85.45703125 C-45.14893633 90.43566532 -48.14381787 95.50720437 -51.16552734 100.5637207 C-55.04160097 107.04616129 -58.96164953 113.50003696 -62.91430664 119.93603516 C-65.05684066 123.42915367 -67.18295014 126.92943208 -69.26171875 130.4609375 C-85.40642838 157.87996202 -85.40642838 157.87996202 -102.66319275 162.8588562 C-113.41606716 165.4671241 -124.10860742 165.66159744 -135.09375 165.5859375 C-136.71184614 165.58219712 -138.32994458 165.57935501 -139.94804382 165.57736206 C-144.16147357 165.56980615 -148.37476057 165.55022904 -152.58813477 165.5279541 C-157.66780397 165.50367821 -162.74752149 165.49467631 -167.82723236 165.48304749 C-175.50340977 165.46379813 -183.17927533 165.42542014 -190.85546875 165.390625 C-190.85546875 150.870625 -190.85546875 136.350625 -190.85546875 121.390625 C-180.95546875 121.390625 -171.05546875 121.390625 -160.85546875 121.390625 C-160.85546875 125.680625 -160.85546875 129.970625 -160.85546875 134.390625 C-154.7354178 134.29667015 -148.61574296 134.19048421 -142.49609375 134.07324219 C-140.41672487 134.03509456 -138.3372932 134.00021755 -136.2578125 133.96875 C-133.25888717 133.92278946 -130.26038887 133.86484736 -127.26171875 133.8046875 C-125.87998474 133.78736069 -125.87998474 133.78736069 -124.47033691 133.76968384 C-115.08631427 133.58660271 -115.08631427 133.58660271 -106.7109375 129.81640625 C-103.95577491 126.21439369 -101.5524414 122.43299063 -99.16796875 118.578125 C-98.38329224 117.32128906 -98.38329224 117.32128906 -97.58276367 116.0390625 C-95.99891352 113.49447678 -94.42498016 110.94407629 -92.85546875 108.390625 C-92.15357422 107.24907959 -92.15357422 107.24907959 -91.4375 106.08447266 C-90.17489349 104.02348044 -88.9190906 101.95860567 -87.66796875 99.890625 C-87.29389893 99.27469482 -86.9198291 98.65876465 -86.53442383 98.02416992 C-85.0178645 95.49179862 -83.79282305 93.20268789 -82.85546875 90.390625 C-82.19546875 90.390625 -81.53546875 90.390625 -80.85546875 90.390625 C-80.62472656 89.72546875 -80.39398438 89.0603125 -80.15625 88.375 C-78.48331483 84.53679439 -76.30156502 81.15716317 -74.04296875 77.640625 C-69.95318254 71.20026279 -69.95318254 71.20026279 -66.16796875 64.578125 C-64.49630846 61.48843564 -62.69738785 58.53043021 -60.79296875 55.578125 C-57.38703228 50.29074328 -54.14428814 44.91424909 -50.91796875 39.515625 C-27.0330956 -0.43111062 -27.0330956 -0.43111062 0 0 Z " fill="#2A2B35" transform="translate(304.85546875,147.609375)"/>
<path d="M0 0 C25.74 0 51.48 0 78 0 C78 30.03 78 60.06 78 91 C54.28232408 91.36097928 54.28232408 91.36097928 44.16796875 91.43945312 C37.26743249 91.49324579 30.36797148 91.55685903 23.46826172 91.67895508 C17.90496684 91.77678544 12.34282479 91.83056607 6.77873611 91.85389519 C4.65670238 91.87051832 2.53473144 91.90298162 0.41318893 91.95157051 C-16.25365822 92.31808433 -16.25365822 92.31808433 -20.59895325 89.03839111 C-22.17784062 86.70647322 -23.11774209 84.66099751 -24 82 C-24.92619141 80.56527344 -24.92619141 80.56527344 -25.87109375 79.1015625 C-26.38800781 78.28429687 -26.90492188 77.46703125 -27.4375 76.625 C-27.95183594 75.81289063 -28.46617187 75.00078125 -28.99609375 74.1640625 C-29.65738281 73.11992187 -30.31867188 72.07578125 -31 71 C-33.31 67.37 -35.62 63.74 -38 60 C-9.62 60 18.76 60 48 60 C48 50.1 48 40.2 48 30 C38.7239037 30.3550697 38.7239037 30.3550697 29.45263672 30.81079102 C20.15188498 30.99061844 20.15188498 30.99061844 16.87426758 28.171875 C15.32409411 25.84746936 14.14687725 23.54427321 13 21 C7.63009522 12.84750579 7.63009522 12.84750579 2 4.875 C0 2 0 2 0 0 Z " fill="#262732" transform="translate(277,222)"/>
<path d="M0 0 C2 2 2 2 2 5 C1.34 5 0.68 5 0 5 C0 5.66 0 6.32 0 7 C-0.66 7 -1.32 7 -2 7 C-2.66 8.65 -3.32 10.3 -4 12 C-3.43925781 12.18691406 -2.87851562 12.37382812 -2.30078125 12.56640625 C1.03509067 14.64495463 2.74880332 17.68517803 4.8125 20.9375 C5.24755859 21.6068457 5.68261719 22.27619141 6.13085938 22.96582031 C7.43061425 24.97096499 8.7169156 26.98415767 10 29 C10.70511719 30.09957031 11.41023438 31.19914062 12.13671875 32.33203125 C13.30452061 34.16085303 14.46797762 35.99246449 15.625 37.828125 C16.72613755 39.56742182 17.85811797 41.28717696 19 43 C22.00414569 43.51184645 22.00414569 43.51184645 25.5390625 43.51171875 C26.71162598 43.54483154 27.88418945 43.57794434 29.09228516 43.61206055 C30.58808105 43.63695557 32.08387695 43.66185059 33.625 43.6875 C38.36875 43.790625 43.1125 43.89375 48 44 C48 53.9 48 63.8 48 74 C19.95 74.33 -8.1 74.66 -37 75 C-34.69 78.3 -32.38 81.6 -30 85 C-28.20475738 87.80178033 -26.42944532 90.60375274 -24.6875 93.4375 C-23.83758996 94.81141472 -22.98734291 96.18512104 -22.13671875 97.55859375 C-21.77280029 98.14954834 -21.40888184 98.74050293 -21.03393555 99.34936523 C-20.05138591 100.91796455 -19.0267061 102.45994084 -18 104 C-15.13209749 104.3159488 -12.47553123 104.43736962 -9.60302734 104.43237305 C-8.30048759 104.44766052 -8.30048759 104.44766052 -6.97163391 104.46325684 C-4.09300397 104.49352179 -1.21470601 104.50267327 1.6640625 104.51171875 C3.65661741 104.52855544 5.64916163 104.5467043 7.64169312 104.56611633 C12.89254416 104.61373214 18.14335189 104.64346648 23.39434814 104.66955566 C28.74996498 104.69930291 34.10543239 104.74585316 39.4609375 104.79101562 C49.97388035 104.87718042 60.48685386 104.94446695 71 105 C69.83789496 110.38794156 68.67284985 113.65159344 64 117 C61.02506864 117.68772223 58.15307444 117.65375554 55.1105957 117.59936523 C54.22550323 117.60330795 53.34041077 117.60725067 52.42849731 117.61131287 C49.51034498 117.61801236 46.59376546 117.58888912 43.67578125 117.55859375 C41.64747928 117.55434325 39.61917245 117.55201503 37.59086609 117.55152893 C33.34477628 117.54536694 29.09921471 117.52267862 24.85327148 117.48706055 C19.40207297 117.44170185 13.95135168 117.42702997 8.49998188 117.42332363 C4.31448127 117.41890282 0.12908146 117.40361417 -4.0563755 117.3844471 C-6.06708762 117.3755501 -8.07781054 117.36882731 -10.08853722 117.36428642 C-12.89213686 117.35527737 -15.69529771 117.33291829 -18.4987793 117.30639648 C-19.75258644 117.30539948 -19.75258644 117.30539948 -21.03172302 117.30438232 C-26.77082446 117.22917554 -26.77082446 117.22917554 -29 115 C-29 114.01 -29 113.02 -29 112 C-30.32 111.34 -31.64 110.68 -33 110 C-33 109.01 -33 108.02 -33 107 C-33.61875 106.690625 -34.2375 106.38125 -34.875 106.0625 C-39 104 -39 104 -39.74609375 101.78515625 C-40.20625247 99.97311882 -40.66459245 98.16061854 -41.12109375 96.34765625 C-41.86306264 93.66897309 -41.86306264 93.66897309 -45 92 C-45.1875 89.375 -45.1875 89.375 -45 87 C-46.175625 87.309375 -46.175625 87.309375 -47.375 87.625 C-48.24125 87.74875 -49.1075 87.8725 -50 88 C-50.66 87.34 -51.32 86.68 -52 86 C-45.89082642 75.51305456 -39.65740751 65.10826085 -33.33129883 54.75073242 C-29.37496026 48.27012401 -25.45649834 41.76822805 -21.5625 35.25 C-18.03875098 29.35560449 -14.45855458 23.51282219 -10.734375 17.7421875 C-7.03947373 11.900249 -3.53492426 5.93963465 0 0 Z " fill="#F8FAF8" transform="translate(277,208)"/>
<path d="M0 0 C16.78776497 -0.12032643 16.78776497 -0.12032643 24.05273438 -0.14648438 C28.97202502 -0.1642818 33.8911451 -0.18512229 38.81030273 -0.22631836 C42.78500269 -0.25938913 46.75951926 -0.27695119 50.73434639 -0.28463173 C52.23588503 -0.29009112 53.73741592 -0.3007457 55.23887444 -0.31719017 C73.04055647 -0.50405303 90.43391778 1.68504628 105.61328125 11.6328125 C109.25211427 15.24186784 111.46802071 19.57402045 114 24 C115.08982448 25.78885579 116.18358315 27.57532065 117.28125 29.359375 C118.35531394 31.15556446 119.4282286 32.95244166 120.5 34.75 C121.06203125 35.65621094 121.6240625 36.56242187 122.203125 37.49609375 C126.11909527 44.13579583 126.11909527 44.13579583 125.54296875 48.31640625 C125.03378906 49.20199219 124.52460938 50.08757812 124 51 C123.51144531 51.85980469 123.02289063 52.71960938 122.51953125 53.60546875 C121.67455078 54.88357422 121.67455078 54.88357422 120.8125 56.1875 C120.19503906 57.12980469 119.57757813 58.07210937 118.94140625 59.04296875 C118.30074219 60.01878906 117.66007812 60.99460938 117 62 C115.18848913 64.89323107 113.38124215 67.78903131 111.578125 70.6875 C110.18127929 72.73436303 108.76975464 74.28820945 107 76 C106.69408936 75.46334717 106.38817871 74.92669434 106.07299805 74.3737793 C104.06983884 70.86088476 102.06644386 67.34817323 100.05444336 63.84033203 C97.31781518 59.06891868 94.59855782 54.29015805 91.9296875 49.48046875 C91.44669189 48.62042236 90.96369629 47.76037598 90.46606445 46.87426758 C89.5484464 45.2403041 88.64029834 43.60097665 87.74291992 41.95581055 C85.37661846 37.77396509 83.60768559 34.9180663 79 33 C74.03970452 31.66389146 68.98783104 31.77461305 63.88671875 31.68359375 C62.91716751 31.66281265 61.94761627 31.64203156 60.94868469 31.62062073 C57.86169293 31.55541059 54.77461848 31.4963732 51.6875 31.4375 C49.59048636 31.39428763 47.49348097 31.35067248 45.39648438 31.30664062 C40.26440693 31.19975849 35.13224659 31.09841104 30 31 C30 35.29 30 39.58 30 44 C20.1 44 10.2 44 0 44 C0 29.48 0 14.96 0 0 Z " fill="#2A2B36" transform="translate(114,148)"/>
<path d="M0 0 C0.99 0.66 1.98 1.32 3 2 C-1.51281572 10.54624808 -6.52181289 18.65361632 -11.7890625 26.75 C-15.35979484 32.28699463 -18.65502792 37.88767153 -21.72607422 43.71801758 C-23.21928245 46.39280051 -25.07387033 48.62444008 -27 51 C-27.62954663 52.19530659 -28.23101132 53.40559124 -28.8125 54.625 C-30.9286141 59.03979491 -33.52488553 63.06783474 -36.19140625 67.16796875 C-38.49578685 70.7763401 -40.62499802 74.47636638 -42.73828125 78.19921875 C-43.15464844 78.79347656 -43.57101563 79.38773437 -44 80 C-44.66 80 -45.32 80 -46 80 C-46.09667969 80.70898438 -46.19335938 81.41796875 -46.29296875 82.1484375 C-47.1203044 85.48520557 -48.46462267 87.7250186 -50.3125 90.625 C-50.65643799 91.16769531 -51.00037598 91.71039063 -51.35473633 92.26953125 C-52.12866999 93.49030845 -52.9054591 94.70927845 -53.68457031 95.92675781 C-55.15125734 98.23839593 -56.58818089 100.56716165 -58.0234375 102.8984375 C-59.07781473 104.59915073 -60.13250102 106.29967239 -61.1875 108 C-61.68612549 108.81291504 -62.18475098 109.62583008 -62.69848633 110.46337891 C-69.32787206 121.06114424 -69.32787206 121.06114424 -74.3125 122.8125 C-74.869375 122.874375 -75.42625 122.93625 -76 123 C-76 120.36 -76 117.72 -76 115 C-75.38125 114.814375 -74.7625 114.62875 -74.125 114.4375 C-70.94397134 112.28562767 -70.80548053 109.62466237 -70 106 C-69.34 106 -68.68 106 -68 106 C-67.814375 104.8553125 -67.814375 104.8553125 -67.625 103.6875 C-67 101 -67 101 -65 98 C-64.34 98 -63.68 98 -63 98 C-63 97.01 -63 96.02 -63 95 C-62.02246356 93.97803008 -61.0194119 92.98020375 -60 92 C-59.3162955 90.67532254 -58.65035814 89.34136367 -58 88 C-57.00692179 86.66150329 -56.00642948 85.32848691 -55 84 C-53.28976984 81.30309859 -52.01253027 79.03759081 -51 76 C-50.525625 75.54625 -50.05125 75.0925 -49.5625 74.625 C-47.62907486 72.61423786 -46.9168436 70.60947795 -46 68 C-46.66 68 -47.32 68 -48 68 C-48.495 69.485 -48.495 69.485 -49 71 C-51.49451413 73.49451413 -52.67389735 73.98118639 -56.25 74.1875 C-57.61125 74.0946875 -57.61125 74.0946875 -59 74 C-59.28875 73.360625 -59.5775 72.72125 -59.875 72.0625 C-60.82823451 69.84793921 -60.82823451 69.84793921 -63 69 C-63.625 66.4375 -63.625 66.4375 -64 64 C-64.66 64 -65.32 64 -66 64 C-66 62.68 -66 61.36 -66 60 C-66.66 60 -67.32 60 -68 60 C-68 59.34 -68 58.68 -68 58 C-68.66 58 -69.32 58 -70 58 C-70.67119549 56.5437455 -71.33681807 55.08492133 -72 53.625 C-72.37125 52.81289062 -72.7425 52.00078125 -73.125 51.1640625 C-74 49 -74 49 -74 47 C-74.66 47 -75.32 47 -76 47 C-76.0825 45.88625 -76.165 44.7725 -76.25 43.625 C-76.56275068 39.97444013 -76.56275068 39.97444013 -78.875 38.75 C-79.57625 38.5025 -80.2775 38.255 -81 38 C-81.64195312 37.25363281 -81.64195312 37.25363281 -82.296875 36.4921875 C-84.62632936 34.45124354 -86.3153054 34.53427177 -89.375 34.375 C-94.69694915 34.06711864 -94.69694915 34.06711864 -97.328125 33.484375 C-101.00841556 32.81718782 -104.64893154 32.85545768 -108.375 32.875 C-109.10460937 32.87113281 -109.83421875 32.86726563 -110.5859375 32.86328125 C-115.157444 32.87144465 -119.49000287 33.2503171 -124 34 C-124 29.71 -124 25.42 -124 21 C-117.89854559 20.92544748 -111.79736054 20.87120817 -105.69555664 20.83520508 C-103.62291846 20.82018479 -101.55031171 20.79976253 -99.4777832 20.77368164 C-96.48641164 20.73699976 -93.4954629 20.72020565 -90.50390625 20.70703125 C-89.12991417 20.68380547 -89.12991417 20.68380547 -87.72816467 20.66011047 C-80.89292224 20.65835092 -74.0009003 21.1718982 -68.82495117 26.04980469 C-68.34002197 26.83258789 -67.85509277 27.61537109 -67.35546875 28.421875 C-66.79649902 29.30939453 -66.2375293 30.19691406 -65.66162109 31.11132812 C-62.78513963 36.11199352 -59.99646187 41.14314966 -57.3125 46.25 C-52.53950337 55.35573339 -52.53950337 55.35573339 -47 64 C-43.7169029 60.97168871 -41.48661962 57.82094014 -39.1875 54 C-38.84783203 53.43837158 -38.50816406 52.87674316 -38.15820312 52.2980957 C-34.70740232 46.57050262 -31.33996627 40.792754 -28 35 C-26.02 35.495 -26.02 35.495 -24 36 C-23.79375 35.030625 -23.5875 34.06125 -23.375 33.0625 C-22.20440666 28.90689365 -19.97771002 25.83489848 -17.51171875 22.3359375 C-16.01716142 20.02651816 -14.97256025 17.7932909 -13.9375 15.25 C-12.28604741 11.3002759 -10.25908274 8.84125162 -7 6 C-6.443125 5.401875 -5.88625 4.80375 -5.3125 4.1875 C-4 3 -4 3 -2 3 C-1.67 2.34 -1.34 1.68 -1 1 C-0.67 0.67 -0.34 0.34 0 0 Z " fill="#CCCECF" transform="translate(268,158)"/>
<path d="M0 0 C2 3 2 3 3 5 C4.21429688 4.85820312 5.42859375 4.71640625 6.6796875 4.5703125 C9.22926915 4.57592585 10.5174645 4.59971844 12.50097656 6.24511719 C13.85510661 8.06009336 15.00196597 9.90874513 16.125 11.875 C16.71087891 12.82246094 16.71087891 12.82246094 17.30859375 13.7890625 C17.70433594 14.43359375 18.10007813 15.078125 18.5078125 15.7421875 C19.10287598 16.69581177 19.10287598 16.69581177 19.70996094 17.66870117 C21 20 21 20 21.85083008 22.5612793 C23.16604577 25.85099806 24.30738349 27.66153667 27 30 C33.36026256 31.98027402 40.4788552 31.30092439 47.0546875 31.1953125 C49.04152709 31.1991011 51.02836276 31.20729113 53.01516724 31.21969604 C58.23390443 31.24048518 63.45054738 31.20160468 68.66900635 31.15020752 C73.99811272 31.10830677 79.32703249 31.12295315 84.65625 31.1328125 C95.10475747 31.1438228 105.55192519 31.09178467 116 31 C114.83789496 36.38794156 113.67284985 39.65159344 109 43 C106.02506864 43.68772223 103.15307444 43.65375554 100.1105957 43.59936523 C99.22550323 43.60330795 98.34041077 43.60725067 97.42849731 43.61131287 C94.51034498 43.61801236 91.59376546 43.58888912 88.67578125 43.55859375 C86.64747928 43.55434325 84.61917245 43.55201503 82.59086609 43.55152893 C78.34477628 43.54536694 74.09921471 43.52267862 69.85327148 43.48706055 C64.40207297 43.44170185 58.95135168 43.42702997 53.49998188 43.42332363 C49.31448127 43.41890282 45.12908146 43.40361417 40.9436245 43.3844471 C38.93291238 43.3755501 36.92218946 43.36882731 34.91146278 43.36428642 C32.10786314 43.35527737 29.30470229 43.33291829 26.5012207 43.30639648 C25.24741356 43.30539948 25.24741356 43.30539948 23.96827698 43.30438232 C18.22917554 43.22917554 18.22917554 43.22917554 16 41 C16 40.01 16 39.02 16 38 C14.68 37.34 13.36 36.68 12 36 C12 35.01 12 34.02 12 33 C11.38125 32.690625 10.7625 32.38125 10.125 32.0625 C6 30 6 30 5.25390625 27.78515625 C4.79374753 25.97311882 4.33540755 24.16061854 3.87890625 22.34765625 C3.13693736 19.66897309 3.13693736 19.66897309 0 18 C-0.1875 15.375 -0.1875 15.375 0 13 C-0.78375 13.20625 -1.5675 13.4125 -2.375 13.625 C-3.24125 13.74875 -4.1075 13.8725 -5 14 C-5.66 13.34 -6.32 12.68 -7 12 C-4.69 8.04 -2.38 4.08 0 0 Z " fill="#CFD0D1" transform="translate(232,282)"/>
<path d="M0 0 C0.33 0 0.66 0 1 0 C1 14.52 1 29.04 1 44 C13.55973396 43.90868131 13.55973396 43.90868131 26.11914062 43.79101562 C31.2555863 43.73707565 36.39193177 43.68595585 41.52856445 43.65356445 C45.67849693 43.62719661 49.82808483 43.58657025 53.97780037 43.53681374 C55.54625156 43.52036767 57.11476203 43.5087171 58.68328667 43.50238609 C72.18903496 43.44246011 85.02189491 41.88203101 98 38 C96.50989011 42.71868132 96.50989011 42.71868132 94.1875 44 C93.1046875 44.495 93.1046875 44.495 92 45 C91.2575 45.804375 90.515 46.60875 89.75 47.4375 C86.36712404 50.58972533 83.36533341 51.69777108 79 53 C77.80375 53.37125 76.6075 53.7425 75.375 54.125 C64.38591576 56.69686918 52.6527533 56.11516069 41.44921875 55.9140625 C40.01431351 55.89222043 38.5794022 55.87077442 37.14448547 55.84970093 C34.17217415 55.80471529 31.19997256 55.75553943 28.2277832 55.703125 C24.41248265 55.63611586 20.59710744 55.57914551 16.78160381 55.52509499 C13.83486186 55.48241155 10.888212 55.43496649 7.94156837 55.38599777 C6.53291823 55.36308835 5.12424457 55.34158032 3.71555138 55.32149124 C1.7630094 55.29285736 -0.189426 55.25721065 -2.1418457 55.22119141 C-3.25211624 55.20263092 -4.36238678 55.18407043 -5.50630188 55.16494751 C-8 55 -8 55 -9 54 C-9.0928726 52.58774954 -9.11746772 51.17091066 -9.11352539 49.75561523 C-9.11344986 48.85475693 -9.11337433 47.95389862 -9.11329651 47.02574158 C-9.10813522 46.04658279 -9.10297394 45.06742401 -9.09765625 44.05859375 C-9.0962413 43.06118668 -9.09482635 42.0637796 -9.09336853 41.03614807 C-9.08775114 37.83656876 -9.07519571 34.63705831 -9.0625 31.4375 C-9.05748724 29.27408955 -9.05292395 27.11067801 -9.04882812 24.94726562 C-9.03777607 19.63148675 -9.02102104 14.31574829 -9 9 C-6.04335481 7.5216774 -3.25770263 7.93967217 0 8 C0 5.36 0 2.72 0 0 Z " fill="#CFD0D1" transform="translate(113,269)"/>
<path d="M0 0 C0.66 0 1.32 0 2 0 C3.65292155 2.23914966 5.18331862 4.47592953 6.6875 6.8125 C7.30141602 7.74739258 7.30141602 7.74739258 7.92773438 8.70117188 C8.34732422 9.34248047 8.76691406 9.98378906 9.19921875 10.64453125 C9.65337158 11.3197583 10.10752441 11.99498535 10.57543945 12.69067383 C12 15 12 15 13.36791992 17.92456055 C14.99495177 21.12749564 16.41648924 23.49243467 19 26 C24.01652481 27.48472982 28.74121593 27.35925651 33.9375 27.1875 C38.578125 27.125625 43.21875 27.06375 48 27 C48 36.9 48 46.8 48 57 C19.62 57 -8.76 57 -38 57 C-38 56.67 -38 56.34 -38 56 C-13.25 56 11.5 56 37 56 C36.67 49.73 36.34 43.46 36 37 C21.15 36.505 21.15 36.505 6 36 C3 30 3 30 2 27.6875 C1.04145794 25.64996902 1.04145794 25.64996902 -2 25 C-5.73149512 19.40275732 -9 12.83884946 -9 6 C-6.69 6 -4.38 6 -2 6 C-1.67 5.34 -1.34 4.68 -1 4 C-0.34 4 0.32 4 1 4 C0.505 2.02 0.505 2.02 0 0 Z " fill="#CACCCD" transform="translate(277,225)"/>
<path d="M0 0 C0.99 0.66 1.98 1.32 3 2 C-1.51281572 10.54624808 -6.52181289 18.65361632 -11.7890625 26.75 C-15.35979484 32.28699463 -18.65502792 37.88767153 -21.72607422 43.71801758 C-23.21928245 46.39280051 -25.07387033 48.62444008 -27 51 C-27.62954663 52.19530659 -28.23101132 53.40559124 -28.8125 54.625 C-30.9286141 59.03979491 -33.52488553 63.06783474 -36.19140625 67.16796875 C-38.49578685 70.7763401 -40.62499802 74.47636638 -42.73828125 78.19921875 C-43.15464844 78.79347656 -43.57101563 79.38773437 -44 80 C-44.66 80 -45.32 80 -46 80 C-46.09667969 80.70898438 -46.19335938 81.41796875 -46.29296875 82.1484375 C-47.1203044 85.48520557 -48.46462267 87.7250186 -50.3125 90.625 C-50.65643799 91.16769531 -51.00037598 91.71039063 -51.35473633 92.26953125 C-52.12866999 93.49030845 -52.9054591 94.70927845 -53.68457031 95.92675781 C-55.15125734 98.23839593 -56.58818089 100.56716165 -58.0234375 102.8984375 C-59.07781473 104.59915073 -60.13250102 106.29967239 -61.1875 108 C-61.93543823 109.21937256 -61.93543823 109.21937256 -62.69848633 110.46337891 C-69.32787206 121.06114424 -69.32787206 121.06114424 -74.3125 122.8125 C-74.869375 122.874375 -75.42625 122.93625 -76 123 C-76 120.36 -76 117.72 -76 115 C-75.38125 114.814375 -74.7625 114.62875 -74.125 114.4375 C-70.94397134 112.28562767 -70.80548053 109.62466237 -70 106 C-69.34 106 -68.68 106 -68 106 C-67.87625 105.236875 -67.7525 104.47375 -67.625 103.6875 C-67 101 -67 101 -65 98 C-64.34 98 -63.68 98 -63 98 C-63 97.01 -63 96.02 -63 95 C-62.02246356 93.97803008 -61.0194119 92.98020375 -60 92 C-59.3162955 90.67532254 -58.65035814 89.34136367 -58 88 C-57.00692179 86.66150329 -56.00642948 85.32848691 -55 84 C-53.28976984 81.30309859 -52.01253027 79.03759081 -51 76 C-50.525625 75.54625 -50.05125 75.0925 -49.5625 74.625 C-47.62907486 72.61423786 -46.9168436 70.60947795 -46 68 C-46.66 68 -47.32 68 -48 68 C-48.33 68.99 -48.66 69.98 -49 71 C-51.49451413 73.49451413 -52.67389735 73.98118639 -56.25 74.1875 C-57.61125 74.0946875 -57.61125 74.0946875 -59 74 C-59.33 72.68 -59.66 71.36 -60 70 C-59.401875 70.226875 -58.80375 70.45375 -58.1875 70.6875 C-55.97670763 71.25621612 -55.97670763 71.25621612 -54.375 69.875 C-52.77636457 67.6950426 -51.89338069 65.54269889 -51 63 C-49 63 -47 63 -45 63 C-43.3725933 61.05771984 -43.3725933 61.05771984 -41.875 58.4375 C-40.96814453 56.9525 -40.96814453 56.9525 -40.04296875 55.4375 C-39.03169922 53.7359375 -39.03169922 53.7359375 -38 52 C-36.79877668 49.98575664 -35.59659615 47.97209469 -34.39306641 45.95922852 C-33.5982084 44.62625582 -32.80741647 43.29084889 -32.02099609 41.95288086 C-30.49919762 39.38253023 -29.12151808 37.12151808 -27 35 C-26.01 35.33 -25.02 35.66 -24 36 C-23.79375 35.030625 -23.5875 34.06125 -23.375 33.0625 C-22.20440666 28.90689365 -19.97771002 25.83489848 -17.51171875 22.3359375 C-16.01716142 20.02651816 -14.97256025 17.7932909 -13.9375 15.25 C-12.28604741 11.3002759 -10.25908274 8.84125162 -7 6 C-6.443125 5.401875 -5.88625 4.80375 -5.3125 4.1875 C-4 3 -4 3 -2 3 C-1.67 2.34 -1.34 1.68 -1 1 C-0.67 0.67 -0.34 0.34 0 0 Z " fill="#E3E5E5" transform="translate(268,158)"/>
<path d="M0 0 C28.71 0 57.42 0 87 0 C87 2.31 87 4.62 87 7 C85 9 85 9 82.19622803 9.24723816 C80.99935364 9.24581314 79.80247925 9.24438812 78.56933594 9.24291992 C77.90878204 9.24481827 77.24822815 9.24671661 76.56765747 9.24867249 C74.37311085 9.25239006 72.17889253 9.24164915 69.984375 9.23046875 C68.45135537 9.22927569 66.91833501 9.22882406 65.38531494 9.2290802 C62.16047631 9.22751282 58.93574827 9.21921399 55.7109375 9.20581055 C51.616199 9.18899168 47.52158401 9.18499135 43.42681503 9.18575573 C40.25224671 9.18548075 37.07770439 9.17994499 33.90314484 9.17275429 C32.39636685 9.16961067 30.88958595 9.16761051 29.38280487 9.16686058 C19.87897022 9.15696933 10.47364301 8.81353792 1 8 C1.33 7.01 1.66 6.02 2 5 C1.34 5 0.68 5 0 5 C-0.33 4.01 -0.66 3.02 -1 2 C-0.67 1.34 -0.34 0.68 0 0 Z " fill="#D0D1D2" transform="translate(257,313)"/>
<path d="M0 0 C0.33 0 0.66 0 1 0 C1 14.52 1 29.04 1 44 C7.6 44 14.2 44 21 44 C20.34 46.64 19.68 49.28 19 52 C16.3178719 53.34106405 14.11601968 53.21450419 11.1171875 53.31640625 C9.54106689 53.37356812 9.54106689 53.37356812 7.93310547 53.43188477 C6.59393066 53.47498779 5.25475586 53.51809082 3.875 53.5625 C-0.37375 53.706875 -4.6225 53.85125 -9 54 C-9 39.48 -9 24.96 -9 10 C-4.545 9.505 -4.545 9.505 0 9 C0 6.03 0 3.06 0 0 Z " fill="#CCCDCE" transform="translate(113,148)"/>
<path d="M0 0 C0.66 0 1.32 0 2 0 C1.54857225 1.77260631 1.08859477 3.5430368 0.625 5.3125 C0.24214844 6.79169922 0.24214844 6.79169922 -0.1484375 8.30078125 C-1 11 -1 11 -3 14 C-3.66 14 -4.32 14 -5 14 C-5.103125 14.556875 -5.20625 15.11375 -5.3125 15.6875 C-6.14178408 18.4769101 -7.34299056 20.6139064 -9 23 C-9.66 23 -10.32 23 -11 23 C-13.15717876 29.04388372 -13.15717876 29.04388372 -14.4375 35.3125 C-15 38 -15 38 -17.125 40.0625 C-17.74375 40.701875 -18.3625 41.34125 -19 42 C-18.65582031 43.02867187 -18.65582031 43.02867187 -18.3046875 44.078125 C-17.81342818 48.78917588 -20.49214424 51.8347941 -23 55.6875 C-23.50748779 56.48607422 -24.01497559 57.28464844 -24.5378418 58.10742188 C-25.55087767 59.69273528 -26.57116179 61.27344348 -27.59912109 62.84912109 C-28.78079632 64.66343945 -29.93466904 66.49582119 -31.08203125 68.33203125 C-35.14468317 74.59566841 -35.14468317 74.59566841 -39.4375 76.625 C-40.283125 76.74875 -41.12875 76.8725 -42 77 C-42 74.36 -42 71.72 -42 69 C-41.38125 68.814375 -40.7625 68.62875 -40.125 68.4375 C-36.94397134 66.28562767 -36.80548053 63.62466237 -36 60 C-35.34 60 -34.68 60 -34 60 C-33.87625 59.236875 -33.7525 58.47375 -33.625 57.6875 C-33 55 -33 55 -31 52 C-30.34 52 -29.68 52 -29 52 C-29 51.01 -29 50.02 -29 49 C-28.02246356 47.97803008 -27.0194119 46.98020375 -26 46 C-25.3162955 44.67532254 -24.65035814 43.34136367 -24 42 C-23.00692179 40.66150329 -22.00642948 39.32848691 -21 38 C-19.28976984 35.30309859 -18.01253027 33.03759081 -17 30 C-16.525625 29.54625 -16.05125 29.0925 -15.5625 28.625 C-13.62907486 26.61423786 -12.9168436 24.60947795 -12 22 C-12.66 22 -13.32 22 -14 22 C-14.33 22.99 -14.66 23.98 -15 25 C-17.49451413 27.49451413 -18.67389735 27.98118639 -22.25 28.1875 C-23.61125 28.0946875 -23.61125 28.0946875 -25 28 C-25.33 26.68 -25.66 25.36 -26 24 C-25.401875 24.226875 -24.80375 24.45375 -24.1875 24.6875 C-21.97670763 25.25621612 -21.97670763 25.25621612 -20.375 23.875 C-18.77636457 21.6950426 -17.89338069 19.54269889 -17 17 C-15 17 -13 17 -11 17 C-9.20692697 14.74872004 -9.20692697 14.74872004 -7.5625 11.875 C-6.95148438 10.87597656 -6.34046875 9.87695312 -5.7109375 8.84765625 C-5.14632812 7.90792969 -4.58171875 6.96820313 -4 6 C-2.72349001 3.92860802 -1.43571182 1.96745694 0 0 Z " fill="#E7E9E9" transform="translate(234,204)"/>
<path d="M0 0 C0.33 0 0.66 0 1 0 C1 17 1 34 1 51 C-2 53 -2 53 -6 53 C-6 52.34 -6 51.68 -6 51 C-6.99 51 -7.98 51 -9 51 C-9 37.14 -9 23.28 -9 9 C-6.04335481 7.5216774 -3.25770263 7.93967217 0 8 C0 5.36 0 2.72 0 0 Z " fill="#CDCECF" transform="translate(113,269)"/>
<path d="M0 0 C1.32 0.33 2.64 0.66 4 1 C0.93294574 8.97434107 0.93294574 8.97434107 -3 12 C-6.04760238 12.38420775 -8.73035855 12.52691123 -11.77587891 12.48583984 C-12.66082535 12.48963654 -13.54577179 12.49343323 -14.45753479 12.49734497 C-17.38090518 12.50475116 -20.30328056 12.48337037 -23.2265625 12.4609375 C-25.2562956 12.45855343 -27.28603094 12.45764768 -29.31576538 12.4581604 C-33.56774728 12.45503248 -37.81939197 12.43846514 -42.07128906 12.41162109 C-47.53035345 12.37759808 -52.98904795 12.36999372 -58.44820595 12.37151146 C-62.63798576 12.37096857 -66.82768418 12.36001509 -71.01743698 12.34550858 C-73.03094237 12.33913075 -75.04445701 12.33519939 -77.05797195 12.33372116 C-79.86644579 12.32940104 -82.67452141 12.3119293 -85.48291016 12.29052734 C-86.73907387 12.2918869 -86.73907387 12.2918869 -88.02061462 12.29327393 C-93.77104199 12.22895801 -93.77104199 12.22895801 -96 10 C-96 9.01 -96 8.02 -96 7 C-94.8612291 7.16233124 -93.72245819 7.32466248 -92.54917908 7.49191284 C-88.08842586 8.04657937 -83.7036039 8.14114097 -79.21313477 8.12939453 C-77.95558128 8.13202301 -77.95558128 8.13202301 -76.67262268 8.13470459 C-73.92886222 8.13907123 -71.18516725 8.13620541 -68.44140625 8.1328125 C-66.5270944 8.13348659 -64.61278263 8.13445749 -62.69847107 8.13571167 C-58.70172301 8.13718122 -54.70499739 8.13505634 -50.70825195 8.13037109 C-45.57436897 8.12464713 -40.44053796 8.12797427 -35.30665684 8.13394356 C-31.36144107 8.13754621 -27.41623778 8.13641243 -23.47102165 8.13381577 C-21.57670015 8.13314707 -19.68237753 8.13397292 -17.78805733 8.13629532 C-15.15237518 8.13881989 -12.5167792 8.1349853 -9.88110352 8.12939453 C-9.09310364 8.13141876 -8.30510376 8.13344299 -7.4932251 8.13552856 C-3.952521 8.44914855 -3.952521 8.44914855 -1 7 C-0.63239269 4.67182036 -0.29758419 2.3381615 0 0 Z " fill="#E5E7E4" transform="translate(344,313)"/>
<path d="M0 0 C0.66 0.33 1.32 0.66 2 1 C0.73202463 5.94510394 -1.56182374 9.56136727 -4.41796875 13.703125 C-7.79636618 18.60805757 -10.84266385 23.69184815 -13.765625 28.87890625 C-16.12854357 32.93923784 -18.62590276 36.91940524 -21.09765625 40.9140625 C-22.31240098 42.88459297 -23.49112144 44.87810147 -24.62109375 46.8984375 C-25.07613281 47.59195313 -25.53117188 48.28546875 -26 49 C-26.66 49 -27.32 49 -28 49 C-28.0825 49.70125 -28.165 50.4025 -28.25 51.125 C-29.17027725 54.65272947 -30.88126977 57.06111614 -33 60 C-33.99 59.67 -34.98 59.34 -36 59 C-35.1875 56.5625 -35.1875 56.5625 -34 54 C-32.515 53.505 -32.515 53.505 -31 53 C-31.0825 52.195625 -31.165 51.39125 -31.25 50.5625 C-30.91706018 45.81810753 -29.09835476 42.21544483 -27 38 C-26.34 38 -25.68 38 -25 38 C-24.566875 36.88625 -24.566875 36.88625 -24.125 35.75 C-23.17697356 33.43260203 -22.15154089 31.22082885 -21 29 C-20.34 29 -19.68 29 -19 29 C-18.690625 28.21625 -18.38125 27.4325 -18.0625 26.625 C-17 24 -17 24 -16 22 C-15.34 22 -14.68 22 -14 22 C-13.566875 20.88625 -13.566875 20.88625 -13.125 19.75 C-12.17697356 17.43260203 -11.15154089 15.22082885 -10 13 C-9.34 13 -8.68 13 -8 13 C-8 12.01 -8 11.02 -8 10 C-7.34 10 -6.68 10 -6 10 C-5.9071875 8.63875 -5.9071875 8.63875 -5.8125 7.25 C-4.81553956 3.26215824 -3.35111834 2.23407889 0 0 Z " fill="#CACBCE" transform="translate(250,189)"/>
<path d="M0 0 C1.34362885 0.00031689 2.68728332 0.01162897 4.03076172 0.03173828 C4.73820526 0.03456818 5.4456488 0.03739807 6.17453003 0.04031372 C8.43667432 0.05151941 10.69842437 0.07662399 12.96044922 0.10205078 C14.49299559 0.11208011 16.02554816 0.12120604 17.55810547 0.12939453 C21.31737223 0.15145992 25.07634386 0.18599183 28.83544922 0.22705078 C28.17544922 0.55705078 27.51544922 0.88705078 26.83544922 1.22705078 C26.83544922 2.21705078 26.83544922 3.20705078 26.83544922 4.22705078 C23.23320298 7.89434511 20.65245873 8.74328586 15.58154297 8.87158203 C14.39753906 8.90832031 13.21353516 8.94505859 11.99365234 8.98291016 C10.76582031 9.00160156 9.53798828 9.02029297 8.27294922 9.03955078 C7.04125 9.07757813 5.80955078 9.11560547 4.54052734 9.15478516 C-5.33580756 9.4077485 -5.33580756 9.4077485 -9.16455078 8.22705078 C-3.98557719 0.28595794 -3.98557719 0.28595794 0 0 Z " fill="#CACBCD" transform="translate(299.16455078125,178.77294921875)"/>
<path d="M0 0 C1.67542976 0.28604898 3.34385343 0.61781233 5 1 C1.26429348 5.30172265 -1.46589537 6.78062101 -7 8 C-8.175625 8.350625 -9.35125 8.70125 -10.5625 9.0625 C-21.56291761 11.74763421 -33.353178 11.1050185 -44.5859375 10.87890625 C-46.0232352 10.8545193 -47.4605423 10.83068055 -48.89785767 10.80735779 C-52.62962789 10.74536746 -56.36122569 10.67607357 -60.09283447 10.60510254 C-63.92118668 10.53363642 -67.74965844 10.46929267 -71.578125 10.40429688 C-79.05221579 10.27638586 -86.52613852 10.14073612 -94 10 C-94.33 8.68 -94.66 7.36 -95 6 C-94.01 6 -93.02 6 -92 6 C-92 6.66 -92 7.32 -92 8 C-82.75994308 7.89265809 -73.51996984 7.78005772 -64.28006077 7.66066074 C-59.9900379 7.60539264 -55.70000826 7.55196657 -51.40991211 7.50268555 C-47.27314564 7.45509914 -43.13646464 7.40275868 -38.99979973 7.34705925 C-37.41810153 7.32660966 -35.83637988 7.30790097 -34.25464058 7.29092598 C-32.04670822 7.2669393 -29.8389388 7.23687744 -27.63110352 7.20532227 C-26.37201675 7.18977798 -25.11292999 7.1742337 -23.81568909 7.15821838 C-21.09702459 7.31913196 -21.09702459 7.31913196 -20 6 C-18.50234521 5.86628082 -17.00142407 5.76859544 -15.5 5.6875 C-10.2593781 5.22753175 -3.87760662 3.87760662 0 0 Z " fill="#E5E6E4" transform="translate(199,314)"/>
<path d="M0 0 C2 2 2 2 2 5 C1.34 5 0.68 5 0 5 C0 5.66 0 6.32 0 7 C-0.66 7 -1.32 7 -2 7 C-2.66 8.65 -3.32 10.3 -4 12 C-3.360625 12.185625 -2.72125 12.37125 -2.0625 12.5625 C0 14 0 14 0.75 17.625 C0.87375 19.295625 0.87375 19.295625 1 21 C0.34 21 -0.32 21 -1 21 C-1.33 21.99 -1.66 22.98 -2 24 C-4.31 23.67 -6.62 23.34 -9 23 C-9 25.64 -9 28.28 -9 31 C-9.6496875 30.0409375 -9.6496875 30.0409375 -10.3125 29.0625 C-11.91239177 26.73253997 -11.91239177 26.73253997 -15 26 C-13.46924078 22.83513917 -11.75390073 19.82030319 -9.9609375 16.796875 C-9.38085938 15.8171875 -8.80078125 14.8375 -8.203125 13.828125 C-7.59984375 12.81234375 -6.9965625 11.7965625 -6.375 10.75 C-5.76398438 9.71875 -5.15296875 8.6875 -4.5234375 7.625 C-3.01683688 5.08261145 -1.50898183 2.54097571 0 0 Z " fill="#F6F7F4" transform="translate(277,208)"/>
<path d="M0 0 C-1.64436476 1.69419399 -3.31223612 3.3498315 -5 5 C-5.49411377 5.5163501 -5.98822754 6.0327002 -6.49731445 6.56469727 C-11.19198364 11.10900086 -14.7114681 11.86509655 -21.125 11.8125 C-22.80081054 11.84758611 -24.47659275 11.88405169 -26.15234375 11.921875 C-26.9707373 11.93154297 -27.78913086 11.94121094 -28.63232422 11.95117188 C-32.00051971 12.02063353 -35.33021344 12.28241901 -38.6875 12.5625 C-39.72261719 12.64628906 -40.75773437 12.73007813 -41.82421875 12.81640625 C-42.54222656 12.87699219 -43.26023437 12.93757812 -44 13 C-44.66 12.01 -45.32 11.02 -46 10 C-41.81020464 8.42838659 -38.29940575 7.74442016 -33.83203125 7.69140625 C-32.69185547 7.66626953 -31.55167969 7.64113281 -30.37695312 7.61523438 C-27.98898915 7.57990559 -25.6009609 7.54869516 -23.21289062 7.52148438 C-22.07658203 7.49505859 -20.94027344 7.46863281 -19.76953125 7.44140625 C-18.21649292 7.42122437 -18.21649292 7.42122437 -16.63208008 7.40063477 C-13.63428685 6.94433399 -12.92133527 6.23741514 -11 4 C-10.34 4 -9.68 4 -9 4 C-9 3.01 -9 2.02 -9 1 C-6.04335481 -0.4783226 -3.25770263 -0.06032783 0 0 Z " fill="#E9EBE9" transform="translate(335,179)"/>
<path d="M0 0 C0.66 0.66 1.32 1.32 2 2 C-1.62545014 8.02567345 -5.29196688 14.02478443 -9 20 C-9.68578125 21.10601562 -10.3715625 22.21203125 -11.078125 23.3515625 C-15.17727511 29.61107551 -15.17727511 29.61107551 -19.4375 31.625 C-20.283125 31.74875 -21.12875 31.8725 -22 32 C-22 30.35 -22 28.7 -22 27 C-21.01 26.67 -20.02 26.34 -19 26 C-18.67 25.34 -18.34 24.68 -18 24 C-17.34 24 -16.68 24 -16 24 C-15.88398438 23.44441406 -15.76796875 22.88882812 -15.6484375 22.31640625 C-14.9085107 19.67317378 -13.84783529 17.39428725 -12.625 14.9375 C-12.20476562 14.08027344 -11.78453125 13.22304688 -11.3515625 12.33984375 C-10.07409719 10.12827809 -8.87997525 8.69835884 -7 7 C-6.154375 6.154375 -5.30875 5.30875 -4.4375 4.4375 C-2.21875 2.21875 -2.21875 2.21875 0 0 Z " fill="#CBCCCE" transform="translate(214,249)"/>
<path d="M0 0 C0 0.66 0 1.32 0 2 C-4.455 2.495 -4.455 2.495 -9 3 C-9 16.86 -9 30.72 -9 45 C-9.99 44.67 -10.98 44.34 -12 44 C-12 30.14 -12 16.28 -12 2 C-5.25 -1.375 -5.25 -1.375 0 0 Z " fill="#E7E9E7" transform="translate(113,155)"/>
<path d="M0 0 C0 0.66 0 1.32 0 2 C-4.455 2.495 -4.455 2.495 -9 3 C-9 16.86 -9 30.72 -9 45 C-9.99 45 -10.98 45 -12 45 C-12.12363784 39.23429185 -12.21435706 33.46935578 -12.2746582 27.70263672 C-12.29979604 25.74123697 -12.33391165 23.77993084 -12.37719727 21.81884766 C-12.43788208 18.99878856 -12.46621641 16.17996806 -12.48828125 13.359375 C-12.51408768 12.48319519 -12.5398941 11.60701538 -12.56648254 10.70428467 C-12.56929124 4.60169464 -12.56929124 4.60169464 -9.60229492 1.46582031 C-5.79909767 -0.67644409 -4.20048569 -1.4001619 0 0 Z " fill="#E8E9E8" transform="translate(113,275)"/>
<path d="M0 0 C0.82886719 -0.00209473 1.65773437 -0.00418945 2.51171875 -0.00634766 C3.38441406 -0.0016748 4.25710937 0.00299805 5.15625 0.0078125 C6.49623047 0.01288818 6.49623047 0.01288818 7.86328125 0.01806641 C26.4402119 0.16256858 26.4402119 0.16256858 31.65625 3.1328125 C31.65625 3.7928125 31.65625 4.4528125 31.65625 5.1328125 C29.9271726 5.16006591 28.19796824 5.17932237 26.46875 5.1953125 C25.02435547 5.21271484 25.02435547 5.21271484 23.55078125 5.23046875 C20.65625 5.1328125 20.65625 5.1328125 18.31640625 4.63671875 C14.6412029 3.94053486 11.00641731 3.98827491 7.28125 4.0078125 C6.55164063 4.00394531 5.82203125 4.00007812 5.0703125 3.99609375 C0.498806 4.00425715 -3.83375287 4.3831296 -8.34375 5.1328125 C-8.34375 3.8128125 -8.34375 2.4928125 -8.34375 1.1328125 C-5.49405167 0.32217797 -2.95937782 0.00450732 0 0 Z " fill="#DBDDDA" transform="translate(152.34375,186.8671875)"/>
<path d="M0 0 C0.66 0.99 1.32 1.98 2 3 C-1.5 8.6875 -1.5 8.6875 -2.58056641 10.4362793 C-4.49049347 13.53039461 -6.38295683 16.6329314 -8.2421875 19.7578125 C-8.59990234 20.35376221 -8.95761719 20.94971191 -9.32617188 21.5637207 C-10.33401562 23.24416409 -11.33512244 24.92864236 -12.3359375 26.61328125 C-12.88507813 27.40089844 -13.43421875 28.18851563 -14 29 C-14.66 29 -15.32 29 -16 29 C-16.0825 29.70125 -16.165 30.4025 -16.25 31.125 C-17.17027725 34.65272947 -18.88126977 37.06111614 -21 40 C-21.99 39.67 -22.98 39.34 -24 39 C-23.1875 36.5625 -23.1875 36.5625 -22 34 C-20.515 33.505 -20.515 33.505 -19 33 C-19.185625 31.6696875 -19.185625 31.6696875 -19.375 30.3125 C-19 27 -19 27 -16.1875 24.5625 C-15.64222656 24.16804688 -15.09695312 23.77359375 -14.53515625 23.3671875 C-11.92406147 21.04178502 -11.1478298 18.25218443 -10 15 C-9.34 15 -8.68 15 -8 15 C-7.34 12.69 -6.68 10.38 -6 8 C-5.34 8 -4.68 8 -4 8 C-3.566875 7.13375 -3.566875 7.13375 -3.125 6.25 C-1.5625 3.125 -1.5625 3.125 0 0 Z " fill="#C9CACD" transform="translate(238,209)"/>
<path d="M0 0 C4.1117256 -0.02465746 8.22342278 -0.04283959 12.33520508 -0.05493164 C13.73495228 -0.0599708 15.1346942 -0.06680216 16.53442383 -0.07543945 C18.54245777 -0.0875232 20.55052957 -0.09269807 22.55859375 -0.09765625 C24.37315063 -0.10551147 24.37315063 -0.10551147 26.22436523 -0.11352539 C29 0 29 0 30 1 C30.08651611 2.41570123 30.10704904 3.835595 30.09765625 5.25390625 C30.09443359 6.10791016 30.09121094 6.96191406 30.08789062 7.84179688 C30.07951172 8.73962891 30.07113281 9.63746094 30.0625 10.5625 C30.05798828 11.46419922 30.05347656 12.36589844 30.04882812 13.29492188 C30.03700225 15.53001314 30.0205222 17.76497437 30 20 C29.34 20 28.68 20 28 20 C28 14.39 28 8.78 28 3 C25.34517578 3.05220703 25.34517578 3.05220703 22.63671875 3.10546875 C20.32032197 3.13360312 18.00391495 3.16090366 15.6875 3.1875 C13.93663086 3.22520508 13.93663086 3.22520508 12.15039062 3.26367188 C11.03212891 3.27333984 9.91386719 3.28300781 8.76171875 3.29296875 C7.73006592 3.3086792 6.69841309 3.32438965 5.63549805 3.34057617 C3 3 3 3 1.13989258 1.48168945 C0.57564575 0.74825317 0.57564575 0.74825317 0 0 Z " fill="#E4E6E5" transform="translate(284,261)"/>
<path d="M0 0 C0.91652344 0.01160156 1.83304688 0.02320313 2.77734375 0.03515625 C3.69644531 0.04417969 4.61554688 0.05320313 5.5625 0.0625 C6.27277344 0.07410156 6.98304688 0.08570313 7.71484375 0.09765625 C7.71484375 0.42765625 7.71484375 0.75765625 7.71484375 1.09765625 C5.07484375 1.09765625 2.43484375 1.09765625 -0.28515625 1.09765625 C-0.28515625 2.41765625 -0.28515625 3.73765625 -0.28515625 5.09765625 C1.19984375 5.59265625 1.19984375 5.59265625 2.71484375 6.09765625 C-1.24703371 10.38969017 -3.25776062 11.97263503 -9.03417969 12.21118164 C-10.0605957 12.20594482 -11.08701172 12.20070801 -12.14453125 12.1953125 C-13.25957031 12.19208984 -14.37460938 12.18886719 -15.5234375 12.18554688 C-16.68230469 12.17716797 -17.84117188 12.16878906 -19.03515625 12.16015625 C-20.20949219 12.15564453 -21.38382813 12.15113281 -22.59375 12.14648438 C-25.49093697 12.13470719 -28.38802079 12.11825951 -31.28515625 12.09765625 C-31.28515625 11.43765625 -31.28515625 10.77765625 -31.28515625 10.09765625 C-25.47745759 9.14962313 -19.72306438 8.79318353 -13.84765625 8.53515625 C-12.46416992 8.47038086 -12.46416992 8.47038086 -11.05273438 8.40429688 C-8.79699462 8.29910694 -6.54116126 8.19696518 -4.28515625 8.09765625 C-4.14078125 6.96328125 -3.99640625 5.82890625 -3.84765625 4.66015625 C-3.13298234 0.13388813 -3.13298234 0.13388813 0 0 Z " fill="#E9EAE8" transform="translate(136.28515625,191.90234375)"/>
<path d="M0 0 C0.66 0.33 1.32 0.66 2 1 C0.08581337 4.20981906 -1.8317942 7.41758146 -3.75 10.625 C-4.55824219 11.98044922 -4.55824219 11.98044922 -5.3828125 13.36328125 C-8.15059885 17.98750966 -10.95602981 22.55225715 -14 27 C-14.66 26.34 -15.32 25.68 -16 25 C-15.58808349 21.33394309 -13.72927031 18.08888289 -12.125 14.8125 C-11.61195313 13.74644531 -11.09890625 12.68039063 -10.5703125 11.58203125 C-9 9 -9 9 -6 8 C-4.33410763 6.14188287 -4.33410763 6.14188287 -2.8125 3.9375 C-2.01779297 2.83728516 -2.01779297 2.83728516 -1.20703125 1.71484375 C-0.80871094 1.14894531 -0.41039062 0.58304688 0 0 Z " fill="#CBCCCE" transform="translate(267,163)"/>
<path d="M0 0 C2 3 2 3 3 5 C5.64 5 8.28 5 11 5 C10.5 6.9375 10.5 6.9375 9 9 C6.99705196 9.25844491 4.99105739 9.50949775 2.9765625 9.65234375 C0.06965613 10.16363756 -1.2408165 11.72772131 -3 14 C-4.32 13.34 -5.64 12.68 -7 12 C-4.69 8.04 -2.38 4.08 0 0 Z " fill="#E0E2E2" transform="translate(232,282)"/>
<path d="M0 0 C0.33 0.99 0.66 1.98 1 3 C1.99 3 2.98 3 4 3 C4.33 4.65 4.66 6.3 5 8 C2.69 7.67 0.38 7.34 -2 7 C-2 9.64 -2 12.28 -2 15 C-2.433125 14.360625 -2.86625 13.72125 -3.3125 13.0625 C-4.91239177 10.73253997 -4.91239177 10.73253997 -8 10 C-6.49946106 6.88349604 -4.93818042 3.86850702 -3 1 C-2.01 0.67 -1.02 0.34 0 0 Z " fill="#E9EAEA" transform="translate(270,224)"/>
<path d="M0 0 C0.66 0.33 1.32 0.66 2 1 C1.21718695 2.33855056 0.42348123 3.67073644 -0.375 5 C-0.81585938 5.7425 -1.25671875 6.485 -1.7109375 7.25 C-2.34902344 8.11625 -2.34902344 8.11625 -3 9 C-3.66 9 -4.32 9 -5 9 C-5.0825 9.721875 -5.165 10.44375 -5.25 11.1875 C-6.15407124 14.57776715 -7.78224048 16.31180664 -10 19 C-10.33 19.886875 -10.66 20.77375 -11 21.6875 C-12 24 -12 24 -14.125 25.3125 C-15.053125 25.6528125 -15.053125 25.6528125 -16 26 C-15.01 22.535 -15.01 22.535 -14 19 C-13.34 19 -12.68 19 -12 19 C-11.71125 18.2575 -11.4225 17.515 -11.125 16.75 C-10.17697356 14.43260203 -9.15154089 12.22082885 -8 10 C-7.34 10 -6.68 10 -6 10 C-5.690625 9.21625 -5.38125 8.4325 -5.0625 7.625 C-4 5 -4 5 -3 3 C-2.34 3 -1.68 3 -1 3 C-0.67 2.01 -0.34 1.02 0 0 Z " fill="#D4D5D5" transform="translate(237,208)"/>
<path d="M0 0 C1.39456452 0.00667256 2.78911118 0.01863093 4.18359375 0.03515625 C4.89451172 0.03966797 5.60542969 0.04417969 6.33789062 0.04882812 C8.09899388 0.06064761 9.86005411 0.07858362 11.62109375 0.09765625 C10.63109375 1.58265625 10.63109375 1.58265625 9.62109375 3.09765625 C6.64013672 3.43823242 6.64013672 3.43823242 2.86328125 3.390625 C2.2002298 3.38638016 1.53717834 3.38213531 0.85403442 3.37776184 C-1.26569066 3.36095596 -3.38446813 3.32330326 -5.50390625 3.28515625 C-6.94009044 3.27011174 -8.37628953 3.25642293 -9.8125 3.24414062 C-13.33494389 3.21104715 -16.85683261 3.15925305 -20.37890625 3.09765625 C-20.37890625 2.76765625 -20.37890625 2.43765625 -20.37890625 2.09765625 C-19.23550781 2.03707031 -18.09210938 1.97648437 -16.9140625 1.9140625 C-15.4231632 1.82967197 -13.9322785 1.74502323 -12.44140625 1.66015625 C-11.68666016 1.62083984 -10.93191406 1.58152344 -10.15429688 1.54101562 C-6.37660782 1.3207916 -3.57469926 0.10331501 0 0 Z " fill="#D7D8D6" transform="translate(332.37890625,318.90234375)"/>
<path d="M0 0 C0.495 0.99 0.495 0.99 1 2 C-0.76504099 5.62297888 -2.54605258 7.93038459 -6 10 C-8.84082031 10.34057617 -8.84082031 10.34057617 -12.078125 10.29296875 C-13.23828125 10.28330078 -14.3984375 10.27363281 -15.59375 10.26367188 C-16.8003125 10.23853516 -18.006875 10.21339844 -19.25 10.1875 C-21.08304687 10.16719727 -21.08304687 10.16719727 -22.953125 10.14648438 C-25.96919498 10.1111398 -28.98437487 10.0617956 -32 10 C-32 9.67 -32 9.34 -32 9 C-31.25838623 8.95512451 -30.51677246 8.91024902 -29.75268555 8.86401367 C-26.39654103 8.65285767 -23.04219995 8.4204398 -19.6875 8.1875 C-18.52025391 8.11724609 -17.35300781 8.04699219 -16.15039062 7.97460938 C-14.47299805 7.85375977 -14.47299805 7.85375977 -12.76171875 7.73046875 C-11.73006592 7.66239014 -10.69841309 7.59431152 -9.63549805 7.52416992 C-6.69944687 6.94022348 -5.91324321 6.19980502 -4 4 C-3.34 4 -2.68 4 -2 4 C-2 3.01 -2 2.02 -2 1 C-1.34 0.67 -0.68 0.34 0 0 Z " fill="#DCDEDB" transform="translate(328,179)"/>
<path d="M0 0 C2.60400391 0.29272461 2.60400391 0.29272461 6 1 C9.10893114 1.20940869 12.22093811 1.25472328 15.3359375 1.31640625 C16.65496567 1.3475779 16.65496567 1.3475779 18.00064087 1.37937927 C20.79201931 1.44442963 23.58348671 1.50355148 26.375 1.5625 C28.27474855 1.60572762 30.17448831 1.64934323 32.07421875 1.69335938 C36.71605614 1.80006501 41.35798246 1.90145615 46 2 C46 2.33 46 2.66 46 3 C29.83 3 13.66 3 -3 3 C-2.01 2.01 -1.02 1.02 0 0 Z " fill="#D9DBD8" transform="translate(114,319)"/>
<path d="M0 0 C0.66 0.66 1.32 1.32 2 2 C0.716961 4.17221487 -0.57572113 6.3375324 -1.875 8.5 C-2.23980469 9.12003906 -2.60460937 9.74007813 -2.98046875 10.37890625 C-3.9322518 11.95367458 -4.96110259 13.48129053 -6 15 C-6.66 15 -7.32 15 -8 15 C-8.8125 12.9375 -8.8125 12.9375 -9 10 C-6.88858304 5.84087262 -3.95673128 2.49127525 0 0 Z " fill="#C6C9C9" transform="translate(214,249)"/>
<path d="M0 0 C0.66 0 1.32 0 2 0 C1.39048014 4.87615889 -0.74501073 8.71977509 -3 13 C-3.66944492 14.33194058 -4.33690395 15.66488733 -5 17 C-5.66 17 -6.32 17 -7 17 C-7.33 17.99 -7.66 18.98 -8 20 C-8.99 19.01 -9.98 18.02 -11 17 C-10.38125 16.814375 -9.7625 16.62875 -9.125 16.4375 C-5.94397134 14.28562767 -5.80548053 11.62466237 -5 8 C-4.34 8 -3.68 8 -3 8 C-2.87625 7.236875 -2.7525 6.47375 -2.625 5.6875 C-2 3 -2 3 0 0 Z " fill="#EDEFED" transform="translate(203,256)"/>
<path d="M0 0 C4.32330779 -0.0496011 8.64646285 -0.0858144 12.9699707 -0.10986328 C14.43940112 -0.11989352 15.90881171 -0.13352101 17.37817383 -0.15087891 C19.49565537 -0.17525898 21.61287199 -0.18651286 23.73046875 -0.1953125 C25.63928833 -0.21102295 25.63928833 -0.21102295 27.58666992 -0.22705078 C30.85835171 -0.00942228 33.06957366 0.58497375 36 2 C33.46628434 3.26685783 32.24005428 2.90907541 29.4375 2.5625 C24.33997413 2.04330755 19.30601316 1.88330838 14.1875 1.875 C13.47070068 1.87056885 12.75390137 1.8661377 12.01538086 1.86157227 C7.90597771 1.87257404 4.03091188 2.20267677 0 3 C0 2.01 0 1.02 0 0 Z " fill="#EAECE7" transform="translate(145,189)"/>
<path d="M0 0 C1.37478516 0.01740234 1.37478516 0.01740234 2.77734375 0.03515625 C3.69644531 0.04417969 4.61554688 0.05320313 5.5625 0.0625 C6.27277344 0.07410156 6.98304688 0.08570313 7.71484375 0.09765625 C7.71484375 0.42765625 7.71484375 0.75765625 7.71484375 1.09765625 C4.74484375 1.09765625 1.77484375 1.09765625 -1.28515625 1.09765625 C-1.24390625 2.21140625 -1.20265625 3.32515625 -1.16015625 4.47265625 C-1.28515625 8.09765625 -1.28515625 8.09765625 -3.28515625 10.09765625 C-5.43994141 10.32470703 -5.43994141 10.32470703 -8.07421875 10.29296875 C-9.01523438 10.28652344 -9.95625 10.28007812 -10.92578125 10.2734375 C-11.910625 10.25667969 -12.89546875 10.23992187 -13.91015625 10.22265625 C-14.90273437 10.21363281 -15.8953125 10.20460937 -16.91796875 10.1953125 C-19.37393759 10.17169741 -21.82942793 10.13876424 -24.28515625 10.09765625 C-24.28515625 9.76765625 -24.28515625 9.43765625 -24.28515625 9.09765625 C-14.38515625 8.60265625 -14.38515625 8.60265625 -4.28515625 8.09765625 C-3.95515625 5.78765625 -3.62515625 3.47765625 -3.28515625 1.09765625 C-2.28515625 0.09765625 -2.28515625 0.09765625 0 0 Z " fill="#DCDEDF" transform="translate(136.28515625,191.90234375)"/>
<path d="M0 0 C0.66 0.99 1.32 1.98 2 3 C0.73433762 5.10743309 -0.53723838 7.21088672 -1.8125 9.3125 C-2.16892578 9.90740234 -2.52535156 10.50230469 -2.89257812 11.11523438 C-4.6855284 14.0596206 -6.39174126 16.72085908 -9 19 C-9.33 17.68 -9.66 16.36 -10 15 C-9.34 15 -8.68 15 -8 15 C-7.34 12.69 -6.68 10.38 -6 8 C-5.34 8 -4.68 8 -4 8 C-3.71125 7.4225 -3.4225 6.845 -3.125 6.25 C-1.5625 3.125 -1.5625 3.125 0 0 Z " fill="#C0C1C4" transform="translate(238,209)"/>
<path d="M0 0 C3.75 -0.375 3.75 -0.375 7 0 C7.33 1.32 7.66 2.64 8 4 C6.906875 4.28875 5.81375 4.5775 4.6875 4.875 C0.95986155 5.81893204 0.95986155 5.81893204 -2 8 C-2.66 7.34 -3.32 6.68 -4 6 C-2.4375 3 -2.4375 3 0 0 Z " fill="#33333C" transform="translate(264,171)"/>
<path d="M0 0 C2.97 0.33 5.94 0.66 9 1 C8.01 1.495 8.01 1.495 7 2 C7.33 2.66 7.66 3.32 8 4 C8.66 3.67 9.32 3.34 10 3 C10.33 3.99 10.66 4.98 11 6 C10.34 6.66 9.68 7.32 9 8 C7.68 8 6.36 8 5 8 C2.52216835 5.38057797 1.14334938 3.43004815 0 0 Z " fill="#313238" transform="translate(277,222)"/>
<path d="M0 0 C0.99 0.66 1.98 1.32 3 2 C-4.29840547 10.44646925 -4.29840547 10.44646925 -8 14 C-8.33 13.34 -8.66 12.68 -9 12 C-8.34 12 -7.68 12 -7 12 C-6.896875 11.236875 -6.79375 10.47375 -6.6875 9.6875 C-5.93631677 6.75105648 -5.21690342 5.95087501 -3 4 C-2.34 3.01 -1.68 2.02 -1 1 C-0.67 0.67 -0.34 0.34 0 0 Z " fill="#E5E6E9" transform="translate(268,158)"/>
<path d="M0 0 C2 2 2 2 2 5 C1.34 5 0.68 5 0 5 C0 5.66 0 6.32 0 7 C-0.66 7 -1.32 7 -2 7 C-2.309375 7.78375 -2.61875 8.5675 -2.9375 9.375 C-4 12 -4 12 -5 14 C-5.99 13.67 -6.98 13.34 -8 13 C-5.36 8.71 -2.72 4.42 0 0 Z " fill="#E2E4E4" transform="translate(277,208)"/>
<path d="M0 0 C0.99 0.66 1.98 1.32 3 2 C2.505 2.45375 2.01 2.9075 1.5 3.375 C-0.22609337 4.87635519 -0.22609337 4.87635519 0 7 C-2.375 7.625 -2.375 7.625 -5 8 C-5.66 7.34 -6.32 6.68 -7 6 C-4.69 4.02 -2.38 2.04 0 0 Z " fill="#323138" transform="translate(279,152)"/>
<path d="M0 0 C0.99 0.33 1.98 0.66 3 1 C3.1799928 6.21979128 2.97094808 10.07262981 1 15 C0.67 15 0.34 15 0 15 C0 10.05 0 5.1 0 0 Z " fill="#24252A" transform="translate(115,296)"/>
<path d="M0 0 C0.99 0 1.98 0 3 0 C3 1.32 3 2.64 3 4 C2.319375 4.66 1.63875 5.32 0.9375 6 C0.298125 6.66 -0.34125 7.32 -1 8 C-0.86358623 10.21858253 -0.86358623 10.21858253 0 12 C-1.65 12.33 -3.3 12.66 -5 13 C-3.58192622 8.52761347 -1.88695626 4.28853694 0 0 Z " fill="#D8DADB" transform="translate(216,238)"/>
<path d="M0 0 C1.625 1.625 1.625 1.625 3 4 C2.1875 7.25 2.1875 7.25 1 10 C-0.65 10.33 -2.3 10.66 -4 11 C-3.34 9.68 -2.68 8.36 -2 7 C-1.34 7 -0.68 7 0 7 C0 6.34 0 5.68 0 5 C-0.66 5 -1.32 5 -2 5 C-1 2 -1 2 0 0 Z " fill="#33353C" transform="translate(237,189)"/>
<path d="M0 0 C0.66 0 1.32 0 2 0 C2.598125 1.093125 3.19625 2.18625 3.8125 3.3125 C5.29044697 5.91074129 6.69822933 8.04349493 9 10 C8.67 10.99 8.34 11.98 8 13 C4.32975239 11.77658413 3.6393158 10.16485941 1.8515625 6.85546875 C0.81881281 4.60521141 0.29747995 2.45420959 0 0 Z " fill="#E1E3E1" transform="translate(270,238)"/>
<path d="M0 0 C0.66 0.33 1.32 0.66 2 1 C2.33 1.99 2.66 2.98 3 4 C1.5625 6.6875 1.5625 6.6875 0 9 C-0.99 8.67 -1.98 8.34 -3 8 C-2.45276317 4.62537285 -1.9451 2.91765 0 0 Z " fill="#323338" transform="translate(283,191)"/>
<path d="M0 0 C2 3 2 3 3 6 C1.35 6.66 -0.3 7.32 -2 8 C-2 8.99 -2 9.98 -2 11 C-2.66 11 -3.32 11 -4 11 C-3.52269162 9.5410574 -3.04308958 8.08286504 -2.5625 6.625 C-2.29566406 5.81289063 -2.02882812 5.00078125 -1.75390625 4.1640625 C-1 2 -1 2 0 0 Z " fill="#D5D6D8" transform="translate(204,259)"/>
<path d="M0 0 C0.66 0.33 1.32 0.66 2 1 C-0.46153846 7.64615385 -0.46153846 7.64615385 -3.1875 9.4375 C-4.0846875 9.7159375 -4.0846875 9.7159375 -5 10 C-4.34 7.69 -3.68 5.38 -3 3 C-2.34 3 -1.68 3 -1 3 C-0.67 2.01 -0.34 1.02 0 0 Z " fill="#D9DADC" transform="translate(226,224)"/>
<path d="M0 0 C0.66 0.33 1.32 0.66 2 1 C-0.97 5.95 -0.97 5.95 -4 11 C-4.99 10.34 -5.98 9.68 -7 9 C-4.69 6.03 -2.38 3.06 0 0 Z " fill="#C2C3C8" transform="translate(267,163)"/>
<path d="M0 0 C0.99 0 1.98 0 3 0 C3.33 0.99 3.66 1.98 4 3 C2.5625 5.6875 2.5625 5.6875 1 8 C0.34 7.67 -0.32 7.34 -1 7 C-1.625 4.4375 -1.625 4.4375 -2 2 C-1.34 2 -0.68 2 0 2 C0 1.34 0 0.68 0 0 Z " fill="#34343D" transform="translate(340,161)"/>
<path d="M0 0 C0.33 0.66 0.66 1.32 1 2 C-3.1205746 3.99785435 -6.45194365 4.17835515 -11 4 C-9 1 -9 1 -6.8359375 0.48828125 C-6.02382812 0.43027344 -5.21171875 0.37226563 -4.375 0.3125 C-3.55773437 0.24675781 -2.74046875 0.18101562 -1.8984375 0.11328125 C-1.27195313 0.07589844 -0.64546875 0.03851563 0 0 Z " fill="#24242A" transform="translate(210,305)"/>
<path d="M0 0 C1.32 1.32 2.64 2.64 4 4 C3.34 5.32 2.68 6.64 2 8 C0 6.6875 0 6.6875 -2 5 C-2 4.01 -2 3.02 -2 2 C-1.34 2 -0.68 2 0 2 C0 1.34 0 0.68 0 0 Z " fill="#BFC0C2" transform="translate(251,301)"/>
<path d="M0 0 C2.0625 0.4375 2.0625 0.4375 4 1 C1.12835434 3.70272533 -0.30991841 4.94791837 -4.3125 5.25 C-5.199375 5.1675 -6.08625 5.085 -7 5 C-5.60683123 2.21366246 -3.84019484 2.06507306 -1 1 C-0.67 0.67 -0.34 0.34 0 0 Z " fill="#E7E9E8" transform="translate(200,315)"/>
<path d="M0 0 C0.66 0.33 1.32 0.66 2 1 C0.68 3.31 -0.64 5.62 -2 8 C-2.66 8 -3.32 8 -4 8 C-4.33 8.99 -4.66 9.98 -5 11 C-5.99 10.01 -6.98 9.02 -8 8 C-7.13375 7.690625 -7.13375 7.690625 -6.25 7.375 C-3.18589456 5.50249112 -1.84460032 3.03041481 0 0 Z " fill="#E5E7E5" transform="translate(200,265)"/>
<path d="M0 0 C4 4.5 4 4.5 4 9 C2.35 8.01 0.7 7.02 -1 6 C-0.67 4.02 -0.34 2.04 0 0 Z " fill="#C2C3C7" transform="translate(290,243)"/>
<path d="M0 0 C2.72426311 2.35277269 3.8141763 4.62496331 5 8 C4.01 8.33 3.02 8.66 2 9 C0.59306362 6.37371875 -0.49157276 3.94887797 -1 1 C-0.67 0.67 -0.34 0.34 0 0 Z " fill="#BFC0C4" transform="translate(282,231)"/>
<path d="M0 0 C0.99 0 1.98 0 3 0 C2.67 0.99 2.34 1.98 2 3 C2.66 3.33 3.32 3.66 4 4 C4 4.66 4 5.32 4 6 C3.34 6 2.68 6 2 6 C2 6.66 2 7.32 2 8 C1.01 7.67 0.02 7.34 -1 7 C-0.67 4.69 -0.34 2.38 0 0 Z " fill="#32323B" transform="translate(227,231)"/>
<path d="M0 0 C0.66 0 1.32 0 2 0 C5 4.38461538 5 4.38461538 5 7 C3.35 7 1.7 7 0 7 C0 4.69 0 2.38 0 0 Z " fill="#DDDEE1" transform="translate(277,225)"/>
<path d="M0 0 C0.66 0.66 1.32 1.32 2 2 C1.67 2.99 1.34 3.98 1 5 C-1.31 4.67 -3.62 4.34 -6 4 C-5.34 3.67 -4.68 3.34 -4 3 C-3.67 2.34 -3.34 1.68 -3 1 C-2.01 0.67 -1.02 0.34 0 0 Z " fill="#E2E4E1" transform="translate(273,227)"/>
<path d="M0 0 C1 4 1 4 0.00390625 6.140625 C-0.47175781 6.83671875 -0.94742188 7.5328125 -1.4375 8.25 C-1.91058594 8.95640625 -2.38367188 9.6628125 -2.87109375 10.390625 C-3.24363281 10.92171875 -3.61617187 11.4528125 -4 12 C-4.66 11.67 -5.32 11.34 -6 11 C-4.02 7.37 -2.04 3.74 0 0 Z " fill="#EDEEEE" transform="translate(255,172)"/>
<path d="M0 0 C2.475 0.99 2.475 0.99 5 2 C4.01 3.32 3.02 4.64 2 6 C0.68 5.67 -0.64 5.34 -2 5 C-1.34 3.35 -0.68 1.7 0 0 Z " fill="#EFEFF0" transform="translate(270,153)"/>
<path d="M0 0 C1.32 0.33 2.64 0.66 4 1 C2.515 4.465 2.515 4.465 1 8 C0.67 8 0.34 8 0 8 C0 5.36 0 2.72 0 0 Z " fill="#E8EAE9" transform="translate(344,313)"/>
<path d="M0 0 C1.65 1.32 3.3 2.64 5 4 C4.67 4.99 4.34 5.98 4 7 C2.0625 6.6875 2.0625 6.6875 0 6 C-1 3 -1 3 0 0 Z " fill="#36363F" transform="translate(250,193)"/>
<path d="M0 0 C0.66 0.33 1.32 0.66 2 1 C0.9024777 3.99324263 0.32317108 4.84610901 -2.625 6.25 C-3.40875 6.4975 -4.1925 6.745 -5 7 C-3.88820837 3.66462511 -2.52588702 2.36292656 0 0 Z " fill="#CECFD1" transform="translate(250,189)"/>
<path d="M0 0 C0.99 1.32 1.98 2.64 3 4 C2.34 5.32 1.68 6.64 1 8 C0.01 6.35 -0.98 4.7 -2 3 C-1.34 2.01 -0.68 1.02 0 0 Z " fill="#C6C7CA" transform="translate(243,288)"/>
<path d="M0 0 C0.66 0.99 1.32 1.98 2 3 C1.34 4.32 0.68 5.64 0 7 C-0.33 6.67 -0.66 6.34 -1 6 C-1.99 7.485 -1.99 7.485 -3 9 C-3.66 8.67 -4.32 8.34 -5 8 C-3.35 5.36 -1.7 2.72 0 0 Z " fill="#D7D9DA" transform="translate(284,196)"/>
<path d="M0 0 C0.103125 0.639375 0.20625 1.27875 0.3125 1.9375 C0.539375 2.618125 0.76625 3.29875 1 4 C1.99 4.33 2.98 4.66 4 5 C2.35 6.65 0.7 8.3 -1 10 C-1.66 9.67 -2.32 9.34 -3 9 C-2.34 8.34 -1.68 7.68 -1 7 C-0.59952556 4.67724823 -0.2602896 2.34260643 0 0 Z " fill="#EEF0F0" transform="translate(135,193)"/>
<path d="M0 0 C0.99 1.32 1.98 2.64 3 4 C1.02 4.99 1.02 4.99 -1 6 C-1.66 5.34 -2.32 4.68 -3 4 C-2.01 2.68 -1.02 1.36 0 0 Z " fill="#E8E9E9" transform="translate(228,290)"/>
<path d="M0 0 C3 3.75 3 3.75 3 6 C1.35 5.67 -0.3 5.34 -2 5 C-1.125 1.125 -1.125 1.125 0 0 Z " fill="#BEBFC5" transform="translate(204,194)"/>
<path d="M0 0 C-1.07401108 2.91517292 -1.77810176 4.77810176 -4 7 C-4.66 5.68 -5.32 4.36 -6 3 C-5.34 3 -4.68 3 -4 3 C-4 2.34 -4 1.68 -4 1 C-2 0 -2 0 0 0 Z " fill="#3A3A41" transform="translate(352,149)"/>
<path d="M0 0 C0 3 0 3 -1.25 4.75 C-3 6 -3 6 -5.1875 5.6875 C-5.785625 5.460625 -6.38375 5.23375 -7 5 C-6.67 4.01 -6.34 3.02 -6 2 C-4.68 2 -3.36 2 -2 2 C-1.34 1.34 -0.68 0.68 0 0 Z " fill="#DEE0DF" transform="translate(215,226)"/>
<path d="M0 0 C1.32 0 2.64 0 4 0 C3.1875 2.4375 3.1875 2.4375 2 5 C1.01 5.33 0.02 5.66 -1 6 C-0.67 4.02 -0.34 2.04 0 0 Z " fill="#EDEEF0" transform="translate(223,222)"/>
<path d="M0 0 C0.66 0.66 1.32 1.32 2 2 C0.6875 4.5 0.6875 4.5 -1 7 C-1.99 7 -2.98 7 -4 7 C-2.79618552 4.50638429 -1.54571278 2.31856917 0 0 Z " fill="#383841" transform="translate(244,204)"/>
<path d="M0 0 C1.32 1.32 2.64 2.64 4 4 C3.01 4.99 2.02 5.98 1 7 C0.34 6.34 -0.32 5.68 -1 5 C-0.625 2.375 -0.625 2.375 0 0 Z " fill="#393C42" transform="translate(220,161)"/>
<path d="M0 0 C0.66 0.33 1.32 0.66 2 1 C1.01 2.485 1.01 2.485 0 4 C-0.66 4 -1.32 4 -2 4 C-2.33 5.32 -2.66 6.64 -3 8 C-3.66 8 -4.32 8 -5 8 C-3.8141763 4.62496331 -2.72426311 2.35277269 0 0 Z " fill="#EAECEC" transform="translate(264,161)"/>
<path d="M0 0 C1.32 0.33 2.64 0.66 4 1 C4 2.65 4 4.3 4 6 C2.68 5.34 1.36 4.68 0 4 C0 2.68 0 1.36 0 0 Z " fill="#E4E6E5" transform="translate(238,308)"/>
<path d="M0 0 C1.32 0.66 2.64 1.32 4 2 C2.68 3.32 1.36 4.64 0 6 C-0.66 5.67 -1.32 5.34 -2 5 C-1.34 3.35 -0.68 1.7 0 0 Z " fill="#C3C4C8" transform="translate(216,243)"/>
<path d="M0 0 C1 3 1 3 0.25 5.625 C-1 8 -1 8 -4 9 C-2.94124926 5.59687262 -1.99097846 2.98646769 0 0 Z " fill="#E1E2E5" transform="translate(258,239)"/>
<path d="M0 0 C1.32 0.33 2.64 0.66 4 1 C3.67 1.66 3.34 2.32 3 3 C2.01 3 1.02 3 0 3 C-0.66 4.32 -1.32 5.64 -2 7 C-2.33 6.34 -2.66 5.68 -3 5 C-1.5625 2.375 -1.5625 2.375 0 0 Z " fill="#DCDDDD" transform="translate(248,187)"/>
<path d="M0 0 C0.66 0.66 1.32 1.32 2 2 C0.35 3.98 -1.3 5.96 -3 8 C-3.66 7.34 -4.32 6.68 -5 6 C-4.34 6 -3.68 6 -3 6 C-2.87625 5.195625 -2.7525 4.39125 -2.625 3.5625 C-2.41875 2.716875 -2.2125 1.87125 -2 1 C-1.34 0.67 -0.68 0.34 0 0 Z " fill="#D7D8DA" transform="translate(264,164)"/>
</svg>
